<svg xmlns="http://www.w3.org/2000/svg"
     width="500" height="500" viewBox="0 0 25 25">
<polygon points="4,3 2.5,3.86603 2.5,2.13397"
         style="stroke:orangered; stroke-width: 0.5; fill:navy;"/>
<polygon points="7,3 6,4 5,3 6,2"
         style="stroke:orangered; stroke-width: 0.5; fill:navy;"/>
<polygon points="10,3 9.30902,3.95106 8.19098,3.58779 8.19098,2.41221 9.30902,2.04894"
         style="stroke:orangered; stroke-width: 0.5; fill:navy;"/>
<polygon points="13,3 12.5,3.86603 11.5,3.86603 11,3 11.5,2.13397 12.5,2.13397"
         style="stroke:orangered; stroke-width: 0.5; fill:navy;"/>
<polygon points="16,3 15.6235,3.78183 14.7775,3.97493 14.099,3.43388 14.099,2.56612 14.7775,2.02507 15.6235,2.21817"
         style="stroke:orangered; stroke-width: 0.5; fill:navy;"/>
<polygon points="4,6 3.70711,6.70711 3,7 2.29289,6.70711 2,6 2.29289,5.29289 3,5 3.70711,5.29289"
         style="stroke:orangered; stroke-width: 0.5; fill:navy;"/>
<polygon points="7,6 6.76604,6.64279 6.17365,6.98481 5.5,6.86603 5.06031,6.34202 5.06031,5.65798 5.5,5.13397 6.17365,5.01519 6.76604,5.35721"
         style="stroke:orangered; stroke-width: 0.5; fill:navy;"/>
<polygon points="10,6 9.80902,6.58779 9.30902,6.95106 8.69098,6.95106 8.19098,6.58779 8,6 8.19098,5.41221 8.69098,5.04894 9.30902,5.04894 9.80902,5.41221"
         style="stroke:orangered; stroke-width: 0.5; fill:navy;"/>
<polygon points="13,6 12.8413,6.54064 12.4154,6.90963 11.8577,6.98982 11.3451,6.75575 11.0405,6.28173 11.0405,5.71827 11.3451,5.24425 11.8577,5.01018 12.4154,5.09037 12.8413,5.45936"
         style="stroke:orangered; stroke-width: 0.5; fill:navy;"/>
<polygon points="16,6 15.866,6.5 15.5,6.86603 15,7 14.5,6.86603 14.134,6.5 14,6 14.134,5.5 14.5,5.13397 15,5 15.5,5.13397 15.866,5.5"
         style="stroke:orangered; stroke-width: 0.5; fill:navy;"/>
<polygon points="4,9 3.88546,9.46472 3.56806,9.82298 3.12054,9.99271 2.6454,9.93502 2.25149,9.66312 2.02906,9.23932 2.02906,8.76068 2.25149,8.33688 2.6454,8.06498 3.12054,8.00729 3.56806,8.17702 3.88546,8.53528"
         style="stroke:orangered; stroke-width: 0.5; fill:navy;"/>
<polygon points="7,9 6.90097,9.43388 6.62349,9.78183 6.22252,9.97493 5.77748,9.97493 5.37651,9.78183 5.09903,9.43388 5,9 5.09903,8.56612 5.37651,8.21817 5.77748,8.02507 6.22252,8.02507 6.62349,8.21817 6.90097,8.56612"
         style="stroke:orangered; stroke-width: 0.5; fill:navy;"/>
<polygon points="10,9 9.91355,9.40674 9.66913,9.74314 9.30902,9.95106 8.89547,9.99452 8.5,9.86603 8.19098,9.58779 8.02185,9.20791 8.02185,8.79209 8.19098,8.41221 8.5,8.13397 8.89547,8.00548 9.30902,8.04894 9.66913,8.25686 9.91355,8.59326"
         style="stroke:orangered; stroke-width: 0.5; fill:navy;"/>
<polygon points="13,9 12.9239,9.38268 12.7071,9.70711 12.3827,9.92388 12,10 11.6173,9.92388 11.2929,9.70711 11.0761,9.38268 11,9 11.0761,8.61732 11.2929,8.29289 11.6173,8.07612 12,8 12.3827,8.07612 12.7071,8.29289 12.9239,8.61732"
         style="stroke:orangered; stroke-width: 0.5; fill:navy;"/>
<polygon points="16,9 15.9325,9.36124 15.739,9.6737 15.4457,9.89516 15.0923,9.99573 14.7263,9.96183 14.3974,9.79802 14.1498,9.52643 14.017,9.18375 14.017,8.81625 14.1498,8.47357 14.3974,8.20198 14.7263,8.03817 15.0923,8.00427 15.4457,8.10484 15.739,8.3263 15.9325,8.63876"
         style="stroke:orangered; stroke-width: 0.5; fill:navy;"/>
<polygon points="4,12 3.93969,12.342 3.76604,12.6428 3.5,12.866 3.17365,12.9848 2.82635,12.9848 2.5,12.866 2.23396,12.6428 2.06031,12.342 2,12 2.06031,11.658 2.23396,11.3572 2.5,11.134 2.82635,11.0152 3.17365,11.0152 3.5,11.134 3.76604,11.3572 3.93969,11.658"
         style="stroke:orangered; stroke-width: 0.5; fill:navy;"/>
<polygon points="7,12 6.94582,12.3247 6.78914,12.6142 6.54695,12.8372 6.24549,12.9694 5.91742,12.9966 5.5983,12.9158 5.32272,12.7357 5.12053,12.4759 5.01364,12.1646 5.01364,11.8354 5.12053,11.5241 5.32272,11.2643 5.5983,11.0842 5.91742,11.0034 6.24549,11.0306 6.54695,11.1628 6.78914,11.3858 6.94582,11.6753"
         style="stroke:orangered; stroke-width: 0.5; fill:navy;"/>
<polygon points="10,12 9.95106,12.309 9.80902,12.5878 9.58779,12.809 9.30902,12.9511 9,13 8.69098,12.9511 8.41221,12.809 8.19098,12.5878 8.04894,12.309 8,12 8.04894,11.691 8.19098,11.4122 8.41221,11.191 8.69098,11.0489 9,11 9.30902,11.0489 9.58779,11.191 9.80902,11.4122 9.95106,11.691"
         style="stroke:orangered; stroke-width: 0.5; fill:navy;"/>
<polygon points="13,12 12.9556,12.2948 12.8262,12.5633 12.6235,12.7818 12.3653,12.9309 12.0747,12.9972 11.7775,12.9749 11.5,12.866 11.2669,12.6802 11.099,12.4339 11.0112,12.149 11.0112,11.851 11.099,11.5661 11.2669,11.3198 11.5,11.134 11.7775,11.0251 12.0747,11.0028 12.3653,11.0691 12.6235,11.2182 12.8262,11.4367 12.9556,11.7052"
         style="stroke:orangered; stroke-width: 0.5; fill:navy;"/>
<polygon points="16,12 15.9595,12.2817 15.8413,12.5406 15.6549,12.7557 15.4154,12.9096 15.1423,12.9898 14.8577,12.9898 14.5846,12.9096 14.3451,12.7557 14.1587,12.5406 14.0405,12.2817 14,12 14.0405,11.7183 14.1587,11.4594 14.3451,11.2443 14.5846,11.0904 14.8577,11.0102 15.1423,11.0102 15.4154,11.0904 15.6549,11.2443 15.8413,11.4594 15.9595,11.7183"
         style="stroke:orangered; stroke-width: 0.5; fill:navy;"/>
<polygon points="4,15 3.96292,15.2698 3.85442,15.5196 3.68255,15.7308 3.46007,15.8879 3.20346,15.9791 2.93176,15.9977 2.66512,15.9423 2.42332,15.817 2.22429,15.6311 2.08279,15.3984 2.00931,15.1362 2.00931,14.8638 2.08279,14.6016 2.22429,14.3689 2.42332,14.183 2.66512,14.0577 2.93176,14.0023 3.20346,14.0209 3.46007,14.1121 3.68255,14.2692 3.85442,14.4804 3.96292,14.7302"
         style="stroke:orangered; stroke-width: 0.5; fill:navy;"/>
<polygon points="7,15 6.96593,15.2588 6.86603,15.5 6.70711,15.7071 6.5,15.866 6.25882,15.9659 6,16 5.74118,15.9659 5.5,15.866 5.29289,15.7071 5.13397,15.5 5.03407,15.2588 5,15 5.03407,14.7412 5.13397,14.5 5.29289,14.2929 5.5,14.134 5.74118,14.0341 6,14 6.25882,14.0341 6.5,14.134 6.70711,14.2929 6.86603,14.5 6.96593,14.7412"
         style="stroke:orangered; stroke-width: 0.5; fill:navy;"/>
<polygon points="10,15 9.96858,15.2487 9.87631,15.4818 9.72897,15.6845 9.53583,15.8443 9.30902,15.9511 9.06279,15.998 8.81262,15.9823 8.57422,15.9048 8.36258,15.7705 8.19098,15.5878 8.07022,15.3681 8.00789,15.1253 8.00789,14.8747 8.07022,14.6319 8.19098,14.4122 8.36258,14.2295 8.57422,14.0952 8.81262,14.0177 9.06279,14.002 9.30902,14.0489 9.53583,14.1557 9.72897,14.3155 9.87631,14.5182 9.96858,14.7513"
         style="stroke:orangered; stroke-width: 0.5; fill:navy;"/>
<polygon points="13,15 12.9709,15.2393 12.8855,15.4647 12.7485,15.6631 12.5681,15.823 12.3546,15.935 12.1205,15.9927 11.8795,15.9927 11.6454,15.935 11.4319,15.823 11.2515,15.6631 11.1145,15.4647 11.0291,15.2393 11,15 11.0291,14.7607 11.1145,14.5353 11.2515,14.3369 11.4319,14.177 11.6454,14.065 11.8795,14.0073 12.1205,14.0073 12.3546,14.065 12.5681,14.177 12.7485,14.3369 12.8855,14.5353 12.9709,14.7607"
         style="stroke:orangered; stroke-width: 0.5; fill:navy;"/>
<polygon points="16,15 15.973,15.2306 15.8936,15.4488 15.766,15.6428 15.5972,15.8021 15.3961,15.9182 15.1736,15.9848 14.9419,15.9983 14.7132,15.958 14.5,15.866 14.3138,15.7274 14.1645,15.5495 14.0603,15.342 14.0068,15.1161 14.0068,14.8839 14.0603,14.658 14.1645,14.4505 14.3138,14.2726 14.5,14.134 14.7132,14.042 14.9419,14.0017 15.1736,14.0152 15.3961,14.0818 15.5972,14.1979 15.766,14.3572 15.8936,14.5512 15.973,14.7694"
         style="stroke:orangered; stroke-width: 0.5; fill:navy;"/>
</svg>